<svg xmlns="http://www.w3.org/2000/svg" xmlns:xlink="http://www.w3.org/1999/xlink" width="500" zoomAndPan="magnify" viewBox="0 0 375 374.999991" height="500" preserveAspectRatio="xMidYMid meet" version="1.0"><defs><clipPath id="b5eca78ee6"><path d="M 1.101562 37.5 L 138 37.5 L 138 340 L 1.101562 340 Z M 1.101562 37.5 " clip-rule="nonzero"/></clipPath><clipPath id="076fe4be5f"><path d="M 77 50 L 286.757812 50 L 286.757812 340 L 77 340 Z M 77 50 " clip-rule="nonzero"/></clipPath><clipPath id="def733c8c7"><path d="M 102 154 L 286.757812 154 L 286.757812 340 L 102 340 Z M 102 154 " clip-rule="nonzero"/></clipPath><clipPath id="f54aa0c7fd"><path d="M 307.824219 273.695312 L 373.621094 273.695312 L 373.621094 339.492188 L 307.824219 339.492188 Z M 307.824219 273.695312 " clip-rule="nonzero"/></clipPath></defs><g clip-path="url(#b5eca78ee6)"><path fill="currentColor" d="M 55.195312 339.679688 L 55.195312 168.636719 C 70.039062 183.648438 84.445312 198.167969 99.394531 213.28125 L 137.632812 174.71875 C 91.6875 128.65625 46.453125 83.296875 1.101562 37.828125 L 1.101562 339.679688 Z M 55.195312 339.679688 " fill-opacity="1" fill-rule="nonzero"/></g><g clip-path="url(#076fe4be5f)"><path fill="currentColor" d="M 78.402344 339.679688 C 106.363281 310.699219 124.515625 292.027344 141.703125 274.355469 C 142.242188 273.605469 142.921875 272.960938 143.753906 272.460938 L 182.828125 232.800781 C 182.871094 232.835938 182.910156 232.875 182.941406 232.90625 C 183 232.84375 183.0625 232.777344 183.121094 232.714844 C 183.113281 232.710938 183.113281 232.710938 183.105469 232.703125 C 211.605469 204.214844 239.277344 175.027344 268.726562 147.757812 C 273.277344 143.539062 277.167969 139.28125 286.695312 126.90625 L 286.695312 50.082031 C 234.929688 103.644531 189.464844 149.328125 143.011719 195.988281 C 142.984375 195.957031 142.96875 195.941406 142.9375 195.910156 L 104.8125 234.632812 C 104.910156 234.746094 105.015625 234.851562 105.128906 234.964844 C 101.511719 238.359375 97.742188 242.039062 90.589844 249.078125 C 87.117188 252.507812 82.832031 256.726562 77.367188 262.105469 L 77.367188 339.679688 Z M 78.402344 339.679688 " fill-opacity="1" fill-rule="nonzero"/></g><g clip-path="url(#def733c8c7)"><path fill="currentColor" d="M 286.742188 339.679688 L 286.742188 154.433594 C 258.125 183.179688 230.898438 210.554688 204.382812 237.199219 C 204.300781 237.125 204.222656 237.042969 204.148438 236.964844 L 164.675781 277.042969 C 164.804688 277.140625 164.910156 277.25 165.039062 277.363281 C 154.554688 287.769531 144.171875 298.109375 133.808594 308.386719 C 123.265625 318.863281 112.78125 329.277344 102.308594 339.6875 L 179.300781 339.6875 C 196.503906 322.574219 213.664062 305.417969 230.828125 288.292969 C 232.160156 286.957031 233.726562 285.882812 236.429688 283.640625 L 236.429688 339.6875 L 286.742188 339.6875 Z M 286.742188 339.679688 " fill-opacity="1" fill-rule="nonzero"/></g><g clip-path="url(#f54aa0c7fd)"><path fill="currentColor" d="M 340.859375 273.695312 C 359.105469 273.695312 373.898438 288.484375 373.898438 306.730469 C 373.898438 324.976562 359.105469 339.765625 340.859375 339.765625 C 322.617188 339.765625 307.824219 324.976562 307.824219 306.730469 C 307.824219 288.484375 322.617188 273.695312 340.859375 273.695312 Z M 340.859375 273.695312 " fill-opacity="1" fill-rule="evenodd"/></g></svg>