<svg xmlns="http://www.w3.org/2000/svg" xmlns:xlink="http://www.w3.org/1999/xlink" width="500" zoomAndPan="magnify" viewBox="0 0 375 374.999991" height="500" preserveAspectRatio="xMidYMid meet" version="1.0"><defs><clipPath id="613866fcd1"><path d="M 32.535156 62 L 147 62 L 147 313.34375 L 32.535156 313.34375 Z M 32.535156 62 " clip-rule="nonzero"/></clipPath><clipPath id="d61bb3619b"><path d="M 95 72 L 270 72 L 270 313.34375 L 95 313.34375 Z M 95 72 " clip-rule="nonzero"/></clipPath><clipPath id="3a152ff72f"><path d="M 116 159 L 270.019531 159 L 270.019531 313.34375 L 116 313.34375 Z M 116 159 " clip-rule="nonzero"/></clipPath><clipPath id="a72a94f2fb"><path d="M 287.535156 258.214844 L 342.234375 258.214844 L 342.234375 312.917969 L 287.535156 312.917969 Z M 287.535156 258.214844 " clip-rule="nonzero"/></clipPath></defs><g clip-path="url(#613866fcd1)"><path fill="#12153e" d="M 77.507812 313.074219 L 77.507812 170.875 C 89.847656 183.355469 101.824219 195.425781 114.25 207.988281 L 146.042969 175.929688 C 107.84375 137.636719 70.238281 99.925781 32.535156 62.125 L 32.535156 313.074219 Z M 77.507812 313.074219 " fill-opacity="1" fill-rule="nonzero"/></g><g clip-path="url(#d61bb3619b)"><path fill="#12153e" d="M 96.800781 313.074219 C 120.046875 288.980469 135.136719 273.457031 149.425781 258.765625 C 149.875 258.140625 150.441406 257.605469 151.132812 257.191406 L 183.613281 224.21875 C 183.652344 224.25 183.683594 224.28125 183.707031 224.304688 C 183.757812 224.253906 183.808594 224.199219 183.859375 224.148438 C 183.855469 224.140625 183.855469 224.140625 183.847656 224.136719 C 207.539062 200.453125 230.546875 176.1875 255.03125 153.519531 C 258.8125 150.011719 262.046875 146.472656 269.96875 136.179688 L 269.96875 72.3125 C 226.933594 116.84375 189.132812 154.820312 150.515625 193.613281 C 150.488281 193.585938 150.476562 193.574219 150.453125 193.550781 L 118.757812 225.742188 C 118.839844 225.835938 118.925781 225.925781 119.019531 226.019531 C 116.011719 228.839844 112.878906 231.902344 106.933594 237.75 C 104.042969 240.605469 100.480469 244.109375 95.9375 248.582031 L 95.9375 313.074219 Z M 96.800781 313.074219 " fill-opacity="1" fill-rule="nonzero"/></g><g clip-path="url(#3a152ff72f)"><path fill="#12153e" d="M 270.007812 313.074219 L 270.007812 159.066406 C 246.214844 182.964844 223.578125 205.722656 201.535156 227.875 C 201.464844 227.8125 201.402344 227.746094 201.339844 227.679688 L 168.523438 261 C 168.632812 261.082031 168.71875 261.171875 168.828125 261.265625 C 160.113281 269.917969 151.476562 278.511719 142.863281 287.058594 C 134.097656 295.769531 125.382812 304.425781 116.671875 313.078125 L 180.683594 313.078125 C 194.984375 298.855469 209.25 284.589844 223.523438 270.351562 C 224.628906 269.242188 225.933594 268.347656 228.179688 266.484375 L 228.179688 313.078125 L 270.007812 313.078125 Z M 270.007812 313.074219 " fill-opacity="1" fill-rule="nonzero"/></g><g clip-path="url(#a72a94f2fb)"><path fill="#12153e" d="M 315 258.214844 C 330.167969 258.214844 342.464844 270.511719 342.464844 285.679688 C 342.464844 300.851562 330.167969 313.148438 315 313.148438 C 299.832031 313.148438 287.535156 300.851562 287.535156 285.679688 C 287.535156 270.511719 299.832031 258.214844 315 258.214844 Z M 315 258.214844 " fill-opacity="1" fill-rule="evenodd"/></g></svg>